<?xml version="1.0" encoding="UTF-8"?>
<svg xmlns="http://www.w3.org/2000/svg" id="Outline" viewBox="0 0 512 512" width="512" height="512" style="enable-background:new 0 0 512 512; fill: #00af37;"><path d="M64,200a8,8,0,0,0,8,8H296a8,8,0,0,0,0-16H72A8,8,0,0,0,64,200Z"/><path d="M296,232H72a8,8,0,0,0,0,16H296a8,8,0,0,0,0-16Z"/><path d="M296,272H72a8,8,0,0,0,0,16H296a8,8,0,0,0,0-16Z"/><path d="M112,176a64,64,0,1,0-64-64A64.072,64.072,0,0,0,112,176Zm0-112a48,48,0,1,1-48,48A48.053,48.053,0,0,1,112,64Z"/><path d="M96,128a8,8,0,0,0,8,8,8,8,0,0,0,16,0v-2.165A15.986,15.986,0,0,0,112,104h8a8,8,0,0,0,0-16,8,8,0,0,0-16,0v2.165A15.986,15.986,0,0,0,112,120h-8A8,8,0,0,0,96,128Z"/><path d="M456,432h-8V408a8,8,0,0,0-8-8h-1.864a195.627,195.627,0,0,1,.9-99.425,48,48,0,1,0-62.072,0,195.627,195.627,0,0,1,.9,99.425H376a8,8,0,0,0-8,8v24h-8a39.759,39.759,0,0,0-16,3.35V80a8,8,0,0,0-2.343-5.657l-56-56A8,8,0,0,0,280,16H24a8,8,0,0,0-8,8V488a8,8,0,0,0,8,8H488a8,8,0,0,0,8-8V472A40.045,40.045,0,0,0,456,432ZM376,264a32,32,0,1,1,32,32A32.036,32.036,0,0,1,376,264Zm19.713,46.4a47.949,47.949,0,0,0,24.574,0A211.575,211.575,0,0,0,421.67,400H394.33A211.575,211.575,0,0,0,395.713,310.4ZM432,416v16H384V416ZM288,43.313,316.687,72H288Zm40,404.715A39.789,39.789,0,0,0,320,472v8H32V32H272V80a8,8,0,0,0,8,8h48ZM480,480H336v-8a24.028,24.028,0,0,1,24-24h96a24.028,24.028,0,0,1,24,24Z"/><path d="M266.343,322.343,249.93,338.756a79.652,79.652,0,1,0,7.977,14.651l19.75-19.75a8,8,0,0,0-11.314-11.314ZM184,448a64,64,0,1,1,54.38-97.694L188,400.687l-22.343-22.344a8,8,0,0,0-11.314,11.314l28,28a8,8,0,0,0,11.314,0l51.728-51.728A63.968,63.968,0,0,1,184,448Z"/></svg>
