<?xml version="1.0" encoding="iso-8859-1"?>
<!-- Generator: Adobe Illustrator 17.1.0, SVG Export Plug-In . SVG Version: 6.00 Build 0)  -->
<!DOCTYPE svg PUBLIC "-//W3C//DTD SVG 1.1//EN" "http://www.w3.org/Graphics/SVG/1.1/DTD/svg11.dtd">
<svg version="1.1" id="Capa_1" xmlns="http://www.w3.org/2000/svg" xmlns:xlink="http://www.w3.org/1999/xlink" x="0px" y="0px"
	 viewBox="0 0 262.646 262.646" style="enable-background:new 0 0 262.646 262.646;" xml:space="preserve">
<g>
	<g>
		<g>
			<g>
				<g>
					<g>
						<g>
							<g>
								<g>
									<g>
										<g>
											<g>
												<g>
													<g>
														<g>
															<g>
																<g>
																	<g>
																		<g>
																			<g>
																				<g>
																					<path style="fill:#000002;" d="M193.786,120.622c-4.597,0-9.482-3.625-9.482-10.343V23.418
																						c0-6.718,4.886-10.343,9.482-10.343c2.231,0,4.477,0.786,6.493,2.273l57.655,42.493
																						c2.992,2.204,4.71,5.486,4.711,9.002c0,3.517-1.717,6.798-4.71,9.005l-57.657,42.501
																						C198.263,119.836,196.018,120.622,193.786,120.622z M199.304,33.264v67.17l45.564-33.588L199.304,33.264z"/>
																				</g>
																			</g>
																		</g>
																	</g>
																</g>
															</g>
														</g>
													</g>
												</g>
											</g>
										</g>
									</g>
								</g>
							</g>
						</g>
					</g>
				</g>
			</g>
		</g>
		<g>
			<g>
				<g>
					<g>
						<g>
							<g>
								<g>
									<g>
										<g>
											<g>
												<g>
													<g>
														<g>
															<g>
																<g>
																	<g>
																		<g>
																			<g>
																				<g>
																					<path style="fill:#000002;" d="M157.316,120.229c-4.143,0-7.5-3.357-7.5-7.5V20.968c0-4.143,3.357-7.5,7.5-7.5
																						c4.142,0,7.5,3.357,7.5,7.5v91.762C164.816,116.872,161.458,120.229,157.316,120.229z"/>
																				</g>
																			</g>
																		</g>
																	</g>
																</g>
															</g>
														</g>
													</g>
												</g>
											</g>
										</g>
									</g>
								</g>
							</g>
						</g>
					</g>
				</g>
			</g>
		</g>
	</g>
	<g>
		<g>
			<g>
				<g>
					<g>
						<g>
							<g>
								<g>
									<g>
										<g>
											<g>
												<g>
													<g>
														<g>
															<g>
																<g>
																	<g>
																		<g>
																			<g>
																				<path style="fill:#000002;" d="M10.055,120.955C10.055,120.955,10.055,120.955,10.055,120.955
																					C4.322,120.954,0,116.365,0,110.279V23.418c0-6.086,4.322-10.676,10.055-10.676c1.825,0,3.634,0.47,5.378,1.394
																					l82.406,43.747c3.636,1.931,5.806,5.284,5.805,8.971c0,3.686-2.171,7.038-5.805,8.968l-82.406,43.738
																					C13.689,120.485,11.88,120.955,10.055,120.955z M15,30.891v71.917l67.743-35.955L15,30.891z"/>
																			</g>
																		</g>
																	</g>
																</g>
															</g>
														</g>
													</g>
												</g>
											</g>
										</g>
									</g>
								</g>
							</g>
						</g>
					</g>
				</g>
			</g>
		</g>
	</g>
	<g>
		<g>
			<g>
				<g>
					<g>
						<g>
							<g>
								<g>
									<g>
										<g>
											<g>
												<g>
													<g>
														<g>
															<g>
																<g>
																	<g>
																		<g>
																			<g>
																				<g>
																					<g>
																						<path style="fill:#000002;" d="M192.556,249.903c-2.283,0.001-4.537-1.037-6.01-3.006
																							c-2.482-3.316-1.807-8.017,1.51-10.497l56.683-42.432l-56.683-42.422c-3.316-2.482-3.992-7.183-1.511-10.499
																							c2.483-3.313,7.182-3.991,10.499-1.511l60.702,45.431c2.96,2.217,4.656,5.497,4.656,9.001
																							c0,3.504-1.696,6.784-4.654,8.999l-60.704,45.439C195.696,249.416,194.119,249.903,192.556,249.903z"/>
																					</g>
																				</g>
																			</g>
																		</g>
																	</g>
																</g>
															</g>
														</g>
													</g>
												</g>
											</g>
										</g>
									</g>
								</g>
							</g>
						</g>
					</g>
				</g>
			</g>
			<g>
				<g>
					<g>
						<g>
							<g>
								<g>
									<g>
										<g>
											<g>
												<g>
													<g>
														<g>
															<g>
																<g>
																	<g>
																		<g>
																			<g>
																				<g>
																					<g>
																						<path style="fill:#000002;" d="M159.474,247.702c-4.56,0-9.404-3.609-9.404-10.299v-86.861
																							c0-6.689,4.845-10.299,9.404-10.299c2.293,0,4.588,0.837,6.638,2.42l54.788,42.314
																							c2.891,2.232,4.549,5.509,4.549,8.991c0,3.483-1.658,6.761-4.549,8.993l-54.788,42.32
																							C164.062,246.865,161.767,247.702,159.474,247.702z M165.069,160.811v66.321l42.934-33.163L165.069,160.811z"
																							/>
																					</g>
																				</g>
																			</g>
																		</g>
																	</g>
																</g>
															</g>
														</g>
													</g>
												</g>
											</g>
										</g>
									</g>
								</g>
							</g>
						</g>
					</g>
				</g>
			</g>
		</g>
		<g>
			<g>
				<g>
					<g>
						<g>
							<g>
								<g>
									<g>
										<g>
											<g>
												<g>
													<g>
														<g>
															<g>
																<g>
																	<g>
																		<g>
																			<g>
																				<g>
																					<path style="fill:#000002;" d="M86.678,246.061H17.5c-9.649,0-17.5-7.851-17.5-17.5v-69.178
																						c0-9.649,7.851-17.5,17.5-17.5h69.178c9.649,0,17.5,7.851,17.5,17.5v69.178
																						C104.178,238.211,96.327,246.061,86.678,246.061z M17.5,156.884c-1.355,0-2.5,1.145-2.5,2.5v69.178
																						c0,1.355,1.145,2.5,2.5,2.5h69.178c1.355,0,2.5-1.145,2.5-2.5v-69.178c0-1.355-1.145-2.5-2.5-2.5H17.5z"/>
																				</g>
																			</g>
																		</g>
																	</g>
																</g>
															</g>
														</g>
													</g>
												</g>
											</g>
										</g>
									</g>
								</g>
							</g>
						</g>
					</g>
				</g>
			</g>
		</g>
	</g>
</g>
<g>
</g>
<g>
</g>
<g>
</g>
<g>
</g>
<g>
</g>
<g>
</g>
<g>
</g>
<g>
</g>
<g>
</g>
<g>
</g>
<g>
</g>
<g>
</g>
<g>
</g>
<g>
</g>
<g>
</g>
</svg>
