<svg id="outline" height="512" viewBox="0 0 512 512" width="512" xmlns="http://www.w3.org/2000/svg" style="enable-background:new 0 0 512 512; fill: #00af37;"><path d="m447.99658 471.99414v-400a24.02718 24.02718 0 0 0 -24-24h-131.05578l-6.63367-13.2666a33.88785 33.88785 0 0 0 -60.62109 0l-6.63367 13.2666h-131.05579a24.02719 24.02719 0 0 0 -24 24v400a24.02719 24.02719 0 0 0 24 24h336a24.02718 24.02718 0 0 0 24-24zm-286.9458-356.03125a7.99863 7.99863 0 0 0 6.9458 4.03125h176a7.99861 7.99861 0 0 0 6.9458-4.03125l11.41071-19.96875h37.64349v352h-288v-352h37.6435zm178.30322-11.96875h-166.71484l-22.85742-40h212.42969zm-99.35742-62.11035a17.88765 17.88765 0 0 1 32 0l3.05536 6.11035h-38.11072zm-160 430.11035v-400a8.00917 8.00917 0 0 1 8-8h43.35779l9.14282 16h-36.50061a8.00008 8.00008 0 0 0 -8 8v368a8.00008 8.00008 0 0 0 8 8h304a8.00008 8.00008 0 0 0 8-8v-368a8.00008 8.00008 0 0 0 -8-8h-36.50058l9.14282-16h43.35779a8.00917 8.00917 0 0 1 8 8v400a8.00917 8.00917 0 0 1 -8 8h-336a8.00917 8.00917 0 0 1 -8.00003-8z"/><path d="m143.99658 255.99414h48a8.00008 8.00008 0 0 0 8-8v-44.686l13.65674-13.65674-11.31348-11.31446-48 48 11.31348 11.31446 18.34326-18.34326v20.686h-32v-32h16v-16h-24a8.00008 8.00008 0 0 0 -8 8v48a8.00008 8.00008 0 0 0 8 8z"/><path d="m215.997 199.994h24v16h-24z"/><path d="m255.997 199.994h104v16h-104z"/><path d="m215.997 231.994h64v16h-64z"/><path d="m295.997 231.994h16v16h-16z"/><path d="m143.99658 335.99414h48a8.00008 8.00008 0 0 0 8-8v-44.686l13.65674-13.65674-11.31348-11.31446-48 48 11.31348 11.31446 18.34326-18.34326v20.686h-32v-32h16v-16h-24a8.00008 8.00008 0 0 0 -8 8v48a8.00008 8.00008 0 0 0 8 8z"/><path d="m215.997 279.994h24v16h-24z"/><path d="m255.997 279.994h104v16h-104z"/><path d="m215.997 311.994h64v16h-64z"/><path d="m295.997 311.994h16v16h-16z"/><path d="m199.997 135.994h16v16h-16z"/><path d="m295.997 135.994h16v16h-16z"/><path d="m231.997 135.994h48v16h-48z"/><path d="m287.99658 375.99414h-18.23388l-6.17676-18.53027a8.00005 8.00005 0 0 0 -15.17871 0l-6.17676 18.53027h-18.23389a8.0001 8.0001 0 0 0 -5.65674 13.65723l12.50391 12.5039-6.43652 19.3086a8 8 0 0 0 12.02685 9.18652l19.5625-13.041 19.5625 13.041a8 8 0 0 0 12.02686-9.18652l-6.43653-19.3086 12.50391-12.5039a8.00009 8.00009 0 0 0 -5.65674-13.65723zm-21.65674 18.34277a8.00083 8.00083 0 0 0 -1.93261 8.1875l.62646 1.87989-4.59961-3.06641a7.99891 7.99891 0 0 0 -8.875 0l-4.59961 3.06641.62647-1.87989a8.00083 8.00083 0 0 0 -1.93262-8.1875l-2.34277-2.34277h4.686a7.99967 7.99967 0 0 0 7.58936-5.46973l.41064-1.23242.41065 1.23242a7.99964 7.99964 0 0 0 7.58935 5.46973h4.686z"/><path d="m142.84375 402.15527-6.43652 19.3086a8 8 0 0 0 12.02685 9.18652l19.5625-13.041 19.5625 13.041a8 8 0 0 0 12.02686-9.18652l-6.43653-19.3086 12.50391-12.5039a8.00009 8.00009 0 0 0 -5.65674-13.65723h-18.23388l-6.17676-18.53027a8.00005 8.00005 0 0 0 -15.17871 0l-6.17676 18.53027h-18.23389a8.0001 8.0001 0 0 0 -5.65674 13.65723zm17.15283-10.16113a7.99967 7.99967 0 0 0 7.58936-5.46973l.41064-1.23242.41065 1.23242a7.99964 7.99964 0 0 0 7.58935 5.46973h4.686l-2.34278 2.34277a8.00083 8.00083 0 0 0 -1.93261 8.1875l.62646 1.87989-4.59961-3.06641a7.99891 7.99891 0 0 0 -8.875 0l-4.59961 3.06641.62647-1.87989a8.00083 8.00083 0 0 0 -1.93262-8.1875l-2.34277-2.34277z"/><path d="m351.58594 357.46387a8.00005 8.00005 0 0 0 -15.17871 0l-6.17676 18.53027h-18.23389a8.0001 8.0001 0 0 0 -5.65674 13.65723l12.50391 12.5039-6.43652 19.3086a8 8 0 0 0 12.02685 9.18652l19.5625-13.041 19.5625 13.041a8 8 0 0 0 12.02686-9.18652l-6.43653-19.3086 12.50391-12.5039a8.00009 8.00009 0 0 0 -5.65674-13.65723h-18.23388zm2.7539 36.873a8.00083 8.00083 0 0 0 -1.93261 8.1875l.62646 1.87989-4.59961-3.06641a7.99891 7.99891 0 0 0 -8.875 0l-4.59961 3.06641.62647-1.87989a8.00083 8.00083 0 0 0 -1.93262-8.1875l-2.34277-2.34277h4.686a7.99967 7.99967 0 0 0 7.58936-5.46973l.41064-1.23242.41065 1.23242a7.99964 7.99964 0 0 0 7.58935 5.46973h4.686z"/></svg>