<?xml version="1.0" encoding="iso-8859-1"?>
<!-- Generator: Adobe Illustrator 19.0.0, SVG Export Plug-In . SVG Version: 6.00 Build 0)  -->
<svg version="1.1" id="Capa_1" xmlns="http://www.w3.org/2000/svg" xmlns:xlink="http://www.w3.org/1999/xlink" x="0px" y="0px"
	 viewBox="0 0 512 512" style="enable-background:new 0 0 512 512;" xml:space="preserve">
<g>
	<g>
		<path d="M496.986,481.993h-44.999V151.002h44.999c13.303,0,20.017-16.117,10.65-25.562L387.639,4.443
			c-5.865-5.914-15.435-5.914-21.3,0L246.342,125.44c-9.368,9.446-2.652,25.562,10.65,25.562h44.999V241H194.995
			c-8.284,0-15,6.716-15,15v74.998H74.998c-8.284,0-15,6.716-15,15v135.996H15c-8.284,0-15,6.716-15,15c0,8.284,6.716,15,15,15
			h481.987c8.284,0,15-6.716,15-15C511.986,488.709,505.27,481.993,496.986,481.993z M179.995,481.993H89.998V360.996h89.997
			V481.993z M301.992,481.993h-91.997V270.999h91.997V481.993z M421.988,136.002v345.991h-89.997V136.002c0-8.284-6.716-15-15-15
			h-23.997l83.996-84.696l83.996,84.696h-23.997C428.704,121.003,421.988,127.719,421.988,136.002z"/>
	</g>
</g>
<g>
</g>
<g>
</g>
<g>
</g>
<g>
</g>
<g>
</g>
<g>
</g>
<g>
</g>
<g>
</g>
<g>
</g>
<g>
</g>
<g>
</g>
<g>
</g>
<g>
</g>
<g>
</g>
<g>
</g>
</svg>
