<svg id="Capa_1" enable-background="new 0 0 509 509" style="enable-background:new 0 0 512 512; fill: #00af37;" height="512" viewBox="0 0 509 509" width="512" xmlns="http://www.w3.org/2000/svg"><g><path d="m464.13 212.304c-4.143 0-7.5 3.358-7.5 7.5v108.288h-44.662v-79.218c0-19.492-15.811-35.351-35.244-35.351h-19.217c-19.434 0-35.244 15.858-35.244 35.351v79.218h-41.549v-68.803c0-19.492-15.811-35.351-35.245-35.351h-19.216c-19.435 0-35.245 15.858-35.245 35.351v68.803h-41.548v-33.391c0-19.492-15.811-35.351-35.245-35.351h-19.216c-19.435 0-35.245 15.858-35.245 35.351v33.391h-44.664v-35.288c0-4.142-3.357-7.5-7.5-7.5s-7.5 3.358-7.5 7.5v42.79c0 .02.003.038.003.058v33.479c0 22.972 18.631 41.66 41.531 41.66h151.459v45.409h-70.12c-11.11 0-20.149 9.039-20.149 20.149v12.197c0 11.11 9.039 20.149 20.149 20.149h225.797c11.109 0 20.148-9.039 20.148-20.149v-12.196c0-11.11-9.039-20.149-20.148-20.149h-70.121v-45.409h151.46c22.899 0 41.53-18.688 41.53-41.66v-33.518c0-.006.001-.013.001-.019v-115.79c0-4.143-3.358-7.501-7.5-7.501zm-126.867 36.57c0-11.221 9.081-20.351 20.244-20.351h19.217c11.163 0 20.244 9.129 20.244 20.351v79.218h-59.705zm-131.255 10.415c0-11.221 9.082-20.351 20.245-20.351h19.216c11.163 0 20.245 9.129 20.245 20.351v68.803h-59.706zm-131.254 35.412c0-11.221 9.082-20.351 20.245-20.351h19.216c11.163 0 20.245 9.129 20.245 20.351v33.391h-59.706zm279.154 181.649v12.197c0 2.839-2.31 5.149-5.148 5.149h-225.797c-2.84 0-5.149-2.31-5.149-5.149v-12.197c0-2.839 2.31-5.149 5.149-5.149h225.797c2.839 0 5.148 2.309 5.148 5.149zm-90.269-20.149h-55.556v-45.409h55.556zm192.99-87.069c0 14.701-11.901 26.66-26.53 26.66h-388.475c-14.629 0-26.531-11.959-26.531-26.66v-26.04h441.536z"/><path d="m70.831 229.274c.224.02.447.03.67.03 2.082 0 4.084-.868 5.51-2.413l24-26c2.81-3.043 2.62-7.789-.424-10.598-3.045-2.81-7.789-2.62-10.598.424l-17.393 18.841-22.77-35.781c-2.225-3.495-6.861-4.523-10.354-2.301-3.495 2.224-4.525 6.86-2.301 10.354l28 44c1.251 1.964 3.342 3.236 5.66 3.444z"/><path d="m114.495 172.304c2.181 0 4.344-.946 5.826-2.771l20.611-25.368 12.123 12.797c2.848 3.006 7.595 3.134 10.603.287 3.007-2.849 3.135-7.596.286-10.603l-18-19c-1.484-1.566-3.552-2.408-5.729-2.336-2.157.082-4.175 1.09-5.536 2.765l-26 32c-2.611 3.215-2.123 7.938 1.092 10.55 1.39 1.13 3.062 1.679 4.724 1.679z"/><path d="m187.42 177.199c-2.542-3.269-7.256-3.858-10.524-1.315-3.27 2.543-3.858 7.255-1.315 10.524l14 18c1.397 1.797 3.536 2.862 5.813 2.895.035 0 .071.001.106.001 2.237 0 4.36-1 5.786-2.729l47-57c.105-.127.197-.261.292-.394l3.833 11.075c1.074 3.103 3.979 5.049 7.088 5.049.813 0 1.642-.133 2.453-.415 3.914-1.355 5.989-5.626 4.635-9.541l-9-26c-1.192-3.443-4.685-5.533-8.282-4.951l-31 5c-4.089.66-6.869 4.509-6.21 8.599.66 4.089 4.511 6.873 8.599 6.21l14.505-2.34-39.529 47.939z"/><path d="m509 85.919c0-47.208-38.273-85.615-85.318-85.615-46.528 0-84.453 37.574-85.28 84.07h-298.012c-22.222 0-40.3 18.079-40.3 40.295l-.09 132.13c-.003 4.142 3.353 7.502 7.495 7.505h.005c4.14 0 7.497-3.354 7.5-7.495l.09-132.135c0-13.951 11.35-25.3 25.3-25.3h299.035c6.453 40.838 41.774 72.16 84.257 72.16 11.674 0 22.805-2.37 32.948-6.648v20.918c0 4.142 3.357 7.5 7.5 7.5s7.5-3.358 7.5-7.5v-29.111c22.539-15.425 37.37-41.392 37.37-70.774zm-15.401-7.5h-65.903l-36.663-55.014c9.764-5.163 20.868-8.102 32.649-8.102 36.25.001 66.176 27.692 69.917 63.116zm-140.237 7.5c0-21.718 9.821-41.17 25.229-54.134l36.517 54.794-27.735 59.791c-20.368-12.383-34.011-34.846-34.011-60.451zm70.32 70.615c-7.951 0-15.589-1.351-22.723-3.805l27.512-59.31h65.129c-3.742 35.424-33.668 63.115-69.918 63.115z"/></g></svg>