<?xml version="1.0" encoding="UTF-8"?>
<svg xmlns="http://www.w3.org/2000/svg" id="Outline" viewBox="0 0 512 512" width="512" height="512" style="enable-background:new 0 0 512 512; fill: #00af37;"><path d="M21.372,318.86l48,16.7a8,8,0,0,0,10.29-5.257l1.764-5.879L238.344,474.205a25.181,25.181,0,0,0,41.387-10.633,24.957,24.957,0,0,0,32.048-15.984,24.976,24.976,0,0,0,31.8-31.789,24.964,24.964,0,0,0,17.35-24.9l69.642-66.476,1.764,5.879a8,8,0,0,0,10.29,5.257l48-16.7A8,8,0,0,0,496,311.3V136a8,8,0,0,0-10.53-7.589l-96,32a8,8,0,0,0-5.132,9.888l4.11,13.7H333.927a96,96,0,1,0-155.854,0H123.552l4.11-13.7a8,8,0,0,0-5.132-9.888l-96-32A8,8,0,0,0,16,136V311.3A8,8,0,0,0,21.372,318.86ZM480,147.1V305.617L445.262,317.7,401.893,173.135ZM392,200a8.017,8.017,0,0,0,1.218-.1l32.2,107.328-71.071,67.841c-.225-.244-.451-.487-.688-.724l-97.485-97.485,43.406-21.7a8,8,0,1,0-7.156-14.31l-81.889,40.944a9.872,9.872,0,0,1-12.123-15l36.165-45.206A95.921,95.921,0,0,0,319.423,200ZM176,128a80,80,0,1,1,80,80A80.091,80.091,0,0,1,176,128Zm16.577,72a96.229,96.229,0,0,0,25.745,16.292L185.916,256.8a25.876,25.876,0,0,0,31.773,39.3l23.576-11.788a8.041,8.041,0,0,0,1.078,1.345l100,100a8.97,8.97,0,1,1-12.686,12.686l-68-68a8,8,0,0,0-11.314,11.314l76,76a8.97,8.97,0,1,1-12.686,12.686l-76-76a8,8,0,0,0-11.314,11.314l68,68a8.97,8.97,0,1,1-12.686,12.686l-76-76a8,8,0,0,0-11.314,11.314l8,8,59.866,59.866a9.167,9.167,0,0,1,0,12.959,9.224,9.224,0,0,1-12.813.15L86.584,307.226,118.752,200ZM32,147.1l78.107,26.035L66.738,317.7,32,305.617Z"/><path d="M256,152H240a8,8,0,0,0,0,16h8v8a8,8,0,0,0,16,0v-9.376A24,24,0,0,0,256,120a8,8,0,0,1,0-16h16a8,8,0,0,0,0-16h-8V80a8,8,0,0,0-16,0v9.376A24,24,0,0,0,256,136a8,8,0,0,1,0,16Z"/></svg>
