<?xml version="1.0" encoding="utf-8"?>
<!-- Generator: Adobe Illustrator 17.0.0, SVG Export Plug-In . SVG Version: 6.00 Build 0)  -->
<!DOCTYPE svg PUBLIC "-//W3C//DTD SVG 1.1//EN" "http://www.w3.org/Graphics/SVG/1.1/DTD/svg11.dtd">
<svg version="1.1" id="Calque_1" xmlns="http://www.w3.org/2000/svg" xmlns:xlink="http://www.w3.org/1999/xlink" x="0px" y="0px"
	 width="24px" height="24px" viewBox="0 0 24 24" enable-background="new 0 0 24 24" xml:space="preserve">
<path fill="none" d="M0,0h24v24H0V0z"/>
<g>
	<path fill="#FFEB3B" d="M11.485,7.271h10.17v-2H9.485L11.485,7.271z M16.485,12.271h2.17v-2h-4.17L16.485,12.271z M14.655,16.101
		v1.17h-4v-2h3.17l-3-3h-4.17v-2h2.17l-3-3h-2.17v-2h0.17l-1.78-1.78l1.41-1.41l18.38,18.38l-1.41,1.41L14.655,16.101z"/>
</g>
<rect x="10.978" y="-1.181" transform="matrix(0.7072 -0.7071 0.7071 0.7072 -4.9706 11.9989)" fill="#F93030" width="2.045" height="26.361"/>
</svg>
