<?xml version="1.0" encoding="iso-8859-1"?>
<!-- Generator: Adobe Illustrator 19.1.0, SVG Export Plug-In . SVG Version: 6.00 Build 0)  -->
<svg version="1.1" id="Capa_1" xmlns="http://www.w3.org/2000/svg" xmlns:xlink="http://www.w3.org/1999/xlink" x="0px" y="0px"
	 viewBox="0 0 356.25 356.25" style="enable-background:new 0 0 356.25 356.25;" xml:space="preserve">
<g>
	<g>
		<path d="M35,0v356.25h286.25V0H35z M306.25,341.25H50V15h256.25V341.25z"/>
		<path d="M121.853,136.467c29.308,0,53.15-23.843,53.15-53.15c0-29.308-23.843-53.151-53.15-53.151s-53.15,23.843-53.15,53.151
			C68.702,112.624,92.545,136.467,121.853,136.467z M159.259,75.817h-29.906V45.91C144.383,48.919,156.25,60.786,159.259,75.817z
			 M114.353,45.91v44.906h44.906c-3.495,17.457-18.937,30.65-37.406,30.65c-21.036,0-38.15-17.114-38.15-38.15
			C83.702,64.847,96.896,49.405,114.353,45.91z"/>
		<rect x="207.5" y="30.166" width="75" height="15"/>
		<rect x="207.5" y="76.639" width="75" height="15"/>
		<rect x="207.5" y="123.111" width="75" height="15"/>
		<rect x="68.109" y="169.583" width="214.391" height="15"/>
		<path d="M292.82,207.917H63.43v103.438h229.39V207.917z M78.43,222.917h81.573v73.438H78.43V222.917z M277.82,296.354H175.003
			v-73.438H277.82V296.354z"/>
	</g>
	<g>
	</g>
	<g>
	</g>
	<g>
	</g>
	<g>
	</g>
	<g>
	</g>
	<g>
	</g>
	<g>
	</g>
	<g>
	</g>
	<g>
	</g>
	<g>
	</g>
	<g>
	</g>
	<g>
	</g>
	<g>
	</g>
	<g>
	</g>
	<g>
	</g>
</g>
<g>
</g>
<g>
</g>
<g>
</g>
<g>
</g>
<g>
</g>
<g>
</g>
<g>
</g>
<g>
</g>
<g>
</g>
<g>
</g>
<g>
</g>
<g>
</g>
<g>
</g>
<g>
</g>
<g>
</g>
</svg>
