<?xml version="1.0" encoding="UTF-8"?>
<svg xmlns="http://www.w3.org/2000/svg" viewBox="0 0 64 64" width="512" height="512"><g id="decrease-stock-exchange-forex-currency"><path d="M52,36v4H51a1,1,0,0,0-.707,1.707l5,5a1,1,0,0,0,1.414,0l5-5A1,1,0,0,0,61,40H60V36a1,1,0,0,0-1-1H53A1,1,0,0,0,52,36Zm2,5V37h4v4a1,1,0,0,0,.649.937L56,44.586l-2.649-2.649A1,1,0,0,0,54,41Z"/><path d="M43,35H37a1,1,0,0,0-1,1v4H35a1,1,0,0,0-.707,1.707l5,5a1,1,0,0,0,1.414,0l5-5A1,1,0,0,0,45,40H44V36A1,1,0,0,0,43,35Zm-3,9.586-2.649-2.649A1,1,0,0,0,38,41V37h4v4a1,1,0,0,0,.649.937Z"/><path d="M60,55v3.586L48.707,47.293a1,1,0,0,0-1.414,0l-6.215,6.214-16.3-20.136a1,1,0,0,0-.725-.37,1.017,1.017,0,0,0-.759.292L16,40.586,2.707,27.293,1.293,28.707l14,14a1,1,0,0,0,1.414,0l7.215-7.214,16.3,20.136a1,1,0,0,0,1.484.078L48,49.414,58.586,60H54v2h7a1,1,0,0,0,1-1V55Z"/><path d="M38.2,57.02l-4.7-.941-4.786-4.786a1.013,1.013,0,0,0-.391-.242l-6-2a1.009,1.009,0,0,0-.941.168l-4.148,3.319-3.395-5.093A1,1,0,0,0,13,47H8.883l-.891-7.124A1,1,0,0,0,7,39H3a1,1,0,0,0-1,1V61a1,1,0,0,0,1,1H38a1,1,0,0,0,1-1V58A1,1,0,0,0,38.2,57.02ZM37,60H4V41H6.117l.891,7.124A1,1,0,0,0,8,49h4.465l3.7,5.555a1,1,0,0,0,1.457.226l4.575-3.66,5.26,1.753,4.833,4.833a.991.991,0,0,0,.511.273l4.2.84Z"/><path d="M49,35V33h1a4,4,0,0,0,4-4V28a4,4,0,0,0-4-4H46a2,2,0,0,1-2-2V21a2,2,0,0,1,2-2h4a2,2,0,0,1,2,2h2a4,4,0,0,0-4-4H49V15H47v2H46a4,4,0,0,0-4,4v1a4,4,0,0,0,4,4h4a2,2,0,0,1,2,2v1a2,2,0,0,1-2,2H46a2,2,0,0,1-2-2H42a4,4,0,0,0,4,4h1v2Z"/><path d="M3,25H9a1,1,0,0,0,1-1V21.477l3.628,1.452A1.012,1.012,0,0,0,14,23h6a1,1,0,0,0,.282-.041l17-5A1,1,0,0,0,38,17V14a1,1,0,0,0-1-1H26.859l5.4-3h8.595l13.478,4.037A3.446,3.446,0,0,0,58.75,10.73a3.48,3.48,0,0,0-2.638-3.309L41.341,2.06A1.016,1.016,0,0,0,41,2H25a1.022,1.022,0,0,0-.342.06L13.824,6H10V4A1,1,0,0,0,9,3H3A1,1,0,0,0,2,4V24A1,1,0,0,0,3,25ZM14,8a1.022,1.022,0,0,0,.342-.06L25.176,4H40.824L55.476,9.316c.822.253,1.274.756,1.274,1.415A1.446,1.446,0,0,1,54.9,12.12L41.287,8.042A1,1,0,0,0,41,8H32a1,1,0,0,0-.486.126l-9,5A1,1,0,0,0,23,15H36v1.252L19.856,21H14.192L10,19.323V8ZM4,5H8V23H4Z"/></g></svg>
