<svg height="480pt" viewBox="0 0 480.20131 480" width="480pt" xmlns="http://www.w3.org/2000/svg"><path d="m152.203125 336.101562c66.398437 0 120-53.601562 120-120 0-32-12-62.402343-34.402344-85.601562l-5.597656-5.597656-112 112-26.402344-26.402344-11.199219 11.199219 37.601563 37.601562 112-112c16 19.199219 24 43.199219 24 68 0 57.601563-46.402344 104-104 104-57.601563 0-104-45.601562-104-103.199219 0-34.402343 16.796875-65.601562 44.796875-85.601562l-8.796875-12.800781c-55.203125 37.601562-68 112.800781-30.402344 167.203125 22.402344 32 59.199219 51.199218 98.402344 51.199218zm0 0"/><path d="m129.800781 114.5-3.199219-16c-8.800781 1.601562-17.601562 4.800781-25.601562 8.800781l7.203125 14.398438c6.398437-3.199219 14.398437-5.597657 21.597656-7.199219zm0 0"/><path d="m167.402344 112.902344 2.398437-16c-8.800781-.800782-17.597656-.800782-26.398437-.800782l.800781 16c8 0 15.199219 0 23.199219.800782zm0 0"/><path d="m212.203125 112.101562c-8-4.800781-16.800781-8.800781-25.601563-11.199218l-4.800781 15.199218c8 2.398438 15.199219 5.597657 22.402344 9.597657zm0 0"/><path d="m456.203125 96.101562h-16v-24h-16v24h-16v-24h-16v24h-104v16h104v16h16v-16h16v16h16v-16h16c4.796875 0 8 3.199219 8 8v24h-178.402344c-10.398437-19.199218-24.800781-36-41.597656-48.800781l12-12 10.398437 10.398438 11.199219-11.199219-32-32-11.199219 11.199219 10.398438 10.402343-14.398438 14.398438c-16.800781-10.398438-35.199218-16.800781-54.398437-20v-18.398438c13.597656 0 24-10.402343 24-24 0-13.601562-10.402344-24-24-24h-48c-13.601563 0-24 10.398438-24 24 0 13.597657 10.398437 24 24 24v18.398438c-82.402344 12.800781-139.203125 90.402344-126.402344 172.800781 5.601563 33.601563 21.601563 64 46.402344 87.199219v129.601562c0 13.597657 10.398437 24 24 24h384c13.597656 0 24-10.402343 24-24v-336c0-13.601562-10.402344-24-24-24zm-200 230.398438v57.601562h-88v-16.800781c32.796875-3.199219 64-17.601562 88-40.800781zm45.597656-86.398438h58.402344v64h-84c13.597656-19.199218 22.398437-40.800781 25.597656-64zm-45.597656 160v64h-88v-64zm16 0h88v64h-88zm0-16v-64h88v64zm104-64h88v64h-88zm0-16v-64h88v64zm0-80v-64h88v64zm-16-64v64h-56.800781c0-2.402343.800781-5.601562.800781-8 0-19.199218-4-38.402343-11.203125-56zm-240-136c0-4.800781 3.199219-8 8-8h48c4.796875 0 8 3.199219 8 8 0 4.800782-3.203125 8-8 8h-48c-4.800781 0-8-3.199218-8-8zm24 24h16v16.800782c-2.402344 0-5.601563-.800782-8-.800782-2.402344 0-5.601563 0-8 .800782zm-128 168c0-75.199218 60.796875-136 136-136 75.199219 0 136 60.800782 136 136 0 75.199219-60.800781 136-136 136-75.203125 0-136-60.800781-136-136zm136 152v16h-88v-44c25.597656 18.398438 56.796875 28 88 28zm-88 88v-56h88v64h-80c-4.800781 0-8-3.199218-8-8zm392 8h-80v-64h88v56c0 4.800782-3.203125 8-8 8zm0 0"/></svg>