<svg height="512" viewBox="0 0 512 512" width="512" xmlns="http://www.w3.org/2000/svg"><g><path d="m424 8h-272a8.008 8.008 0 0 0 -5.66 2.34l-64 64a8.008 8.008 0 0 0 -2.34 5.66v416a8 8 0 0 0 8 8h336a8 8 0 0 0 8-8v-480a8 8 0 0 0 -8-8zm-280 27.31v36.69h-36.69zm272 452.69h-320v-400h56a8 8 0 0 0 8-8v-56h256z"/><path d="m164 152h-4v-24h24a8 8 0 0 0 0-16h-24v-8a8 8 0 0 0 -16 0v8h-4a28 28 0 0 0 0 56h4v24h-24a8 8 0 0 0 0 16h24v8a8 8 0 0 0 16 0v-8h4a28 28 0 0 0 0-56zm-20 0h-4a12 12 0 0 1 0-24h4zm20 40h-4v-24h4a12 12 0 0 1 0 24z"/><path d="m224 144h168a8 8 0 0 0 0-16h-168a8 8 0 0 0 0 16z"/><path d="m224 168h168a8 8 0 0 0 0-16h-168a8 8 0 0 0 0 16z"/><path d="m224 192h168a8 8 0 0 0 0-16h-168a8 8 0 0 0 0 16z"/><path d="m360 80h32a8 8 0 0 0 8-8v-32a8 8 0 0 0 -8-8h-32a8 8 0 0 0 -8 8v32a8 8 0 0 0 8 8zm8-32h16v16h-16z"/><path d="m296 80h32a8 8 0 0 0 8-8v-32a8 8 0 0 0 -8-8h-32a8 8 0 0 0 -8 8v32a8 8 0 0 0 8 8zm8-32h16v16h-16z"/><path d="m392 232h-272a8 8 0 0 0 -8 8v176a8 8 0 0 0 8 8h272a8 8 0 0 0 8-8v-176a8 8 0 0 0 -8-8zm-8 40h-24v-24h24zm-152 16v120h-48v-120zm-48-16v-24h48v24zm64 16h96v120h-96zm0-16v-24h96v24zm-80-24v24h-40v-24zm-40 40h40v120h-40zm232 120v-120h24v120z"/><path d="m385.14 440.006c-16.259-10.085-36.943-4.249-50.877 4.576-1.78 1.127-3.556 2.322-5.273 3.477-7.571 5.091-14.728 9.9-21.454 8.852-3.9-.606-7.859-3.305-12.053-6.162-4.673-3.186-9.97-6.8-16.448-8.367-15.028-3.647-31.6 6.289-35.461 21.262a8 8 0 1 0 15.492 4c1.7-6.6 9.577-11.315 16.2-9.711 3.648.885 7.322 3.389 11.212 6.039 5.22 3.558 11.137 7.59 18.605 8.751 12.925 2.011 23.5-5.108 32.84-11.386 1.7-1.145 3.31-2.226 4.905-3.236 9.838-6.23 23.9-10.685 33.882-4.5a8 8 0 0 0 8.434-13.6z"/></g></svg>