<?xml version="1.0" encoding="iso-8859-1"?>
<!-- Generator: Adobe Illustrator 19.0.0, SVG Export Plug-In . SVG Version: 6.00 Build 0)  -->
<svg version="1.1" id="Capa_1" xmlns="http://www.w3.org/2000/svg" xmlns:xlink="http://www.w3.org/1999/xlink" x="0px" y="0px"
	 viewBox="0 0 488 488" style="enable-background:new 0 0 488 488;" xml:space="preserve">
<g>
	<g>
		<rect y="468" width="480" height="16"/>
	</g>
</g>
<g>
	<g>
		<path d="M464,364h-64c-4.418,0-8,3.582-8,8v72c0,4.418,3.582,8,8,8h64c4.418,0,8-3.582,8-8v-72C472,367.582,468.418,364,464,364z
			 M456,436h-48v-56h48V436z"/>
	</g>
</g>
<g>
	<g>
		<path d="M368,276h-64c-4.418,0-8,3.582-8,8v160c0,4.418,3.582,8,8,8h64c4.418,0,8-3.582,8-8V284C376,279.582,372.418,276,368,276z
			 M360,436h-48V292h48V436z"/>
	</g>
</g>
<g>
	<g>
		<path d="M272,316h-64c-4.418,0-8,3.582-8,8v120c0,4.418,3.582,8,8,8h64c4.418,0,8-3.582,8-8V324C280,319.582,276.418,316,272,316z
			 M264,436h-48V332h48V436z"/>
	</g>
</g>
<g>
	<g>
		<path d="M176,180h-64c-4.418,0-8,3.582-8,8v256c0,4.418,3.582,8,8,8h64c4.418,0,8-3.582,8-8V188C184,183.582,180.418,180,176,180z
			 M168,436h-48V196h48V436z"/>
	</g>
</g>
<g>
	<g>
		<path d="M80,68H16c-4.418,0-8,3.582-8,8v368c0,4.418,3.582,8,8,8h64c4.418,0,8-3.582,8-8V76C88,71.582,84.418,68,80,68z M72,436
			H24V84h48V436z"/>
	</g>
</g>
<g>
	<g>
		<path d="M464,212l0,20.688L337.656,106.344c-2.792-2.801-7.212-3.141-10.4-0.8L240.8,169.472L77.656,6.344L66.344,17.656l168,168
			c2.792,2.801,7.212,3.141,10.4,0.8l86.456-63.928L452.688,244H432v16h40c4.418,0,8-3.582,8-8v-40H464z"/>
	</g>
</g>
<g>
	<g>
		<rect x="360" y="4" width="128" height="16"/>
	</g>
</g>
<g>
	<g>
		<rect x="360" y="28" width="128" height="16"/>
	</g>
</g>
<g>
	<g>
		<rect x="360" y="52" width="128" height="16"/>
	</g>
</g>
<g>
	<g>
		<rect x="360" y="76" width="64" height="16"/>
	</g>
</g>
<g>
</g>
<g>
</g>
<g>
</g>
<g>
</g>
<g>
</g>
<g>
</g>
<g>
</g>
<g>
</g>
<g>
</g>
<g>
</g>
<g>
</g>
<g>
</g>
<g>
</g>
<g>
</g>
<g>
</g>
</svg>
