<svg id="Outline" enable-background="new 0 0 512 512" height="512" viewBox="0 0 512 512" width="512" xmlns="http://www.w3.org/2000/svg" style="enable-background:new 0 0 512 512; fill: #00af37;"><path d="m493.7 98.3-80-80c-1.5-1.5-3.5-2.3-5.7-2.3h-192c-4.4 0-8 3.6-8 8v56h-104c-4.4 0-8 3.6-8 8 0 1.1.2 2.1.6 3.1l23.4 56.2c-8.8 3.9-15.9 10.7-20.1 19.3l-.2-.3c-52.4 31.2-83.7 91.6-83.7 161.7 0 34.8 7 78.8 12.9 109.6 6.5 33.9 36.2 58.4 70.7 58.4h388.4c4.4 0 8-3.6 8-8v-384c0-2.1-.8-4.2-2.3-5.7zm-77.7-55 52.7 52.7h-52.7zm-192-11.3h176v72c0 4.4 3.6 8 8 8h72v240h-128.9c.6-8.6.9-16.7.9-24 0-8-.4-16-1.3-24h97.3c4.4 0 8-3.6 8-8s-3.6-8-8-8h-99.6c-1-5.4-2.2-10.8-3.5-16h103.1c4.4 0 8-3.6 8-8s-3.6-8-8-8h-108.1c-2-5.5-4.1-10.8-6.5-16h114.6c4.4 0 8-3.6 8-8s-3.6-8-8-8h-123c-3.2-5.5-6.8-10.9-10.6-16h133.6c4.4 0 8-3.6 8-8s-3.6-8-8-8h-147.3c-9.6-9.9-20.6-18.6-32.5-25.7l-.2.3c-4.2-8.6-11.3-15.5-20.1-19.3l23.4-56.2c1.7-4.1-.2-8.8-4.3-10.5-1-.4-2-.6-3.1-.6h-40v-48zm256 352h-80v-16h80zm-80 48h80v16h-80zm0-16v-16h80v16zm-216 8c-44.2 0-80-35.8-80-80s35.8-80 80-80 80 35.8 80 80c-.1 44.2-35.8 79.9-80 80zm168-8h-72v-16h72zm-72 16h72v16h-72zm72-48h-72v-16h72zm-100-288-33.3 80h-69.3l-33.4-80zm-125.8 66.1 10.4 25c1.2 3 4.2 4.9 7.4 4.9h80c3.2 0 6.1-1.9 7.4-4.9l10.4-25c12.1 5.4 17.5 19.6 12.1 31.7-3.9 8.6-12.4 14.2-21.9 14.2h-96c-13.2 0-24-10.7-24-24 0-9.4 5.6-18 14.2-21.9zm-81.6 272.5c-5.7-30.1-12.6-73-12.6-106.6 0-58.9 23.8-110.1 64.2-140.1 2 20.5 19.2 36 39.8 36.1h96c20.6 0 37.8-15.6 39.8-36.1 43.7 33.2 63.8 83.8 64.2 140.1 0 7.2-.3 15.3-1 24h-55.4c.2-2.6.3-5.3.3-8 .1-53.1-42.9-96.1-96-96.2s-96.1 42.9-96.2 96 42.9 96.1 96 96.2c32.2 0 62.4-16.1 80.2-43v83h-164.3c-26.8 0-49.9-19.1-55-45.4zm235.4 29.4h72v16h-72zm88 16v-112h16v112zm32 0v-16h80v16z"/><path d="m184 320h16c4.4 0 8-3.6 8-8s-3.6-8-8-8h-8v-8c0-4.4-3.6-8-8-8s-8 3.6-8 8v9.4c-12.5 4.4-19 18.1-14.6 30.6 3.4 9.6 12.5 16 22.6 16 4.4 0 8 3.6 8 8s-3.6 8-8 8h-16c-4.4 0-8 3.6-8 8s3.6 8 8 8h8v8c0 4.4 3.6 8 8 8s8-3.6 8-8v-9.4c12.5-4.4 19-18.1 14.6-30.6-3.4-9.6-12.5-16-22.6-16-4.4 0-8-3.6-8-8s3.6-8 8-8z"/><path d="m344 176h104c4.4 0 8-3.6 8-8s-3.6-8-8-8h-104c-4.4 0-8 3.6-8 8s3.6 8 8 8z"/><path d="m344 144h104c4.4 0 8-3.6 8-8s-3.6-8-8-8h-104c-4.4 0-8 3.6-8 8s3.6 8 8 8z"/></svg>