<?xml version="1.0" encoding="UTF-8"?>
<svg xmlns="http://www.w3.org/2000/svg" width="512" height="512" viewBox="0 0 512 512"><g><path d="M422.66,445.03a47.919,47.919,0,0,0,17.01-43.57,7.532,7.532,0,0,0-.3-1.33L385.34,230.11a24,24,0,0,0-7.38-46.02l10.59-47.52c.04-.2.08-.4.11-.61A28,28,0,0,0,360.94,104H352v-4a28.031,28.031,0,0,0-28-28h-8a28.031,28.031,0,0,0-28,28v4H263.63c.24-2.64.37-5.3.37-8a88.081,88.081,0,1,0-37.53,72.05l3.57,16.04a23.991,23.991,0,0,0-8.22,45.64L186.03,344.04H136V328a8,8,0,0,0-8-8H88a8,8,0,0,0-8,8V456a8,8,0,0,0,8,8h40a8,8,0,0,0,8-8V440.04h17.47a8.055,8.055,0,0,1,5.62,2.29l55.68,54.86a23.946,23.946,0,0,0,16.8,6.85H408.04a24.032,24.032,0,0,0,24-24v-16A23.946,23.946,0,0,0,422.66,445.03ZM120,448H96V336h24ZM352,120h8.94a12.02,12.02,0,0,1,11.92,13.43L361.59,184H352Zm-64,0v32a8,8,0,0,0,16,0V100a12.01,12.01,0,0,1,12-12h8a12.01,12.01,0,0,1,12,12v84H304v-8a8,8,0,0,0-16,0v8H246.41l-6.21-27.89A87.883,87.883,0,0,0,260.67,120ZM176,168a71.953,71.953,0,1,1,70.56-57.63.127.127,0,0,0-.01.06A72.134,72.134,0,0,1,176,168Zm56,32H376a8,8,0,0,1,0,16H232a8,8,0,0,1,0-16ZM416.04,480.04a8.011,8.011,0,0,1-8,8H231.57a7.991,7.991,0,0,1-5.59-2.27l-55.66-54.83a23.835,23.835,0,0,0-16.85-6.9H136.04v-64h80.01l33.82-.08h.02a8.009,8.009,0,0,1,5.88,2.58l65.15,70.75a2.5,2.5,0,0,0,.23.23,8.026,8.026,0,0,1,1.02,10.08h-.01a7.833,7.833,0,0,1-1.01,1.24l-11.31,11.31a8.015,8.015,0,0,1-11.32,0l-50.91-50.91a8,8,0,1,0-11.31,11.31l50.91,50.91a24,24,0,0,0,33.94,0l11.31-11.31c.04-.03.07-.08.11-.11h75.47a8,8,0,0,1,8,8ZM248,336a56,56,0,1,1,56.64,55.98l-37.09-40.27a24.064,24.064,0,0,0-17.66-7.75h-.05l-1.26.01A57.412,57.412,0,0,1,248,336ZM392.12,440H339.47a24.027,24.027,0,0,0-6.88-17.66L318.1,406.6A72,72,0,1,0,232,336a73.682,73.682,0,0,0,.45,8l-16.41.04H202.8L237.88,232H264v16a8,8,0,0,0,16,0V232h89.15l54.76,172.28A32.007,32.007,0,0,1,392.12,440Z"/><path d="M288,352a8,8,0,0,0,0,16h8a8,8,0,0,0,16,0h8a8,8,0,0,0,8-8V336a8,8,0,0,0-8-8H296v-8h24a8,8,0,0,0,0-16h-8a8,8,0,0,0-16,0h-8a8,8,0,0,0-8,8v24a8,8,0,0,0,8,8h24v8Z"/><path d="M210.343,66.343,166.98,109.706,148.438,97.344a8,8,0,1,0-8.876,13.312l24,16a8,8,0,0,0,10.095-1l48-48a8,8,0,0,0-11.314-11.314Z"/></g></svg>
