<svg height="512" viewBox="0 0 64 64" width="512" xmlns="http://www.w3.org/2000/svg" style="enable-background:new 0 0 512 512; fill: #00af37;"><g id="internet_banking-bank-money-report-grow" data-name="internet banking-bank-money-report-grow"><path d="m26 20a4 4 0 1 0 4 4 4 4 0 0 0 -4-4zm0 6a2 2 0 1 1 2-2 2 2 0 0 1 -2 2z"/><path d="m26 47a1 1 0 0 1 -1-1h-2a3 3 0 0 0 2 2.816v1.184h2v-1.184a2.993 2.993 0 0 0 -1-5.816 1 1 0 1 1 1-1h2a3 3 0 0 0 -2-2.816v-1.184h-2v1.184a2.993 2.993 0 0 0 1 5.816 1 1 0 0 1 0 2z"/><path d="m61 2h-28a1 1 0 0 0 -1 1v14.96l-5.43-3.78a.993.993 0 0 0 -1.14 0l-23 16a1 1 0 0 0 .57 1.82h1v3a1 1 0 0 0 1 1h2v16h-2a1 1 0 0 0 -1 1v3h-1a1 1 0 0 0 -1 1v4a1 1 0 0 0 1 1h46a1 1 0 0 0 1-1v-4a1 1 0 0 0 -1-1h-1v-3a1 1 0 0 0 -1-1h-2v-16h2a1 1 0 0 0 1-1v-3h1a1 1 0 0 0 .57-1.82l-8.88-6.18h20.31a1 1 0 0 0 1-1v-20a1 1 0 0 0 -1-1zm-13 56v2h-44v-2zm-2-4v2h-40v-2zm-31.08-18h5.11a9.955 9.955 0 0 0 0 16h-5.11a7 7 0 0 0 -5.92-5.92v-4.16a7 7 0 0 0 5.92-5.92zm-5.92 3.9v-3.9h3.9a5.01 5.01 0 0 1 -3.9 3.9zm34 2.02v4.16a7 7 0 0 0 -5.92 5.92h-5.11a9.955 9.955 0 0 0 0-16h5.11a7 7 0 0 0 5.92 5.92zm-3.9-5.92h3.9v3.9a5.01 5.01 0 0 1 -3.9-3.9zm3.9 12.1v3.9h-3.9a5.01 5.01 0 0 1 3.9-3.9zm-9-4.1a8 8 0 1 1 -8-8 8.011 8.011 0 0 1 8 8zm-21.1 8h-3.9v-3.9a5.01 5.01 0 0 1 3.9 3.9zm33.1-18h-40v-2h40zm-.19-4h-5.81v-2h-2v2h-2v-2h-2v2h-2v-2h-2v2h-8v-2h-2v2h-2v-2h-2v2h-2v-2h-2v2h-5.81l19.81-13.78 6 4.17v2.61a1 1 0 0 0 1 1h4.19zm14.19-8h-26v-18h26z"/><path d="m37 20h4a1 1 0 0 0 1-1v-7a1 1 0 0 0 -1-1h-4a1 1 0 0 0 -1 1v7a1 1 0 0 0 1 1zm1-7h2v5h-2z"/><path d="m45 20h4a1 1 0 0 0 1-1v-10a1 1 0 0 0 -1-1h-4a1 1 0 0 0 -1 1v10a1 1 0 0 0 1 1zm1-10h2v8h-2z"/><path d="m53 20h4a1 1 0 0 0 1-1v-12a1 1 0 0 0 -1-1h-4a1 1 0 0 0 -1 1v12a1 1 0 0 0 1 1zm1-12h2v10h-2z"/><path d="m2 2h4v2h-4z"/><path d="m8 2h10v2h-10z"/><path d="m2 8h4v2h-4z"/><path d="m8 8h10v2h-10z"/><path d="m2 14h4v2h-4z"/><path d="m8 14h10v2h-10z"/><path d="m61.8 42.4-6-8a1.041 1.041 0 0 0 -1.6 0l-6 8a1 1 0 0 0 -.09 1.05.977.977 0 0 0 .89.55h2v7a1 1 0 0 0 1 1h6a1 1 0 0 0 1-1v-7h2a.977.977 0 0 0 .89-.55 1 1 0 0 0 -.09-1.05zm-3.8-.4a1 1 0 0 0 -1 1v7h-4v-7a1 1 0 0 0 -1-1h-1l4-5.33 4 5.33z"/></g></svg>