<?xml version="1.0" encoding="utf-8"?>
<!-- Generator: Adobe Illustrator 17.0.0, SVG Export Plug-In . SVG Version: 6.00 Build 0)  -->
<!DOCTYPE svg PUBLIC "-//W3C//DTD SVG 1.1//EN" "http://www.w3.org/Graphics/SVG/1.1/DTD/svg11.dtd">
<svg version="1.1" id="Calque_1" xmlns="http://www.w3.org/2000/svg" xmlns:xlink="http://www.w3.org/1999/xlink" x="0px" y="0px"
	 width="27.833px" height="27px" viewBox="-3.833 -1.5 27.833 27" enable-background="new -3.833 -1.5 27.833 27"
	 xml:space="preserve">
<path fill="none" stroke="#0007AD" stroke-miterlimit="10" d="M17,17l5-5l-5-5 M12,6.9H7.467c-0.623,0-1.133,0.51-1.133,1.133v7.933
	c0,0.623,0.51,1.133,1.133,1.133H12 M12.333,2.7H4.067C2.93,2.7,2,3.63,2,4.767v14.467C2,20.37,2.93,21.3,4.067,21.3h8.267
	 M12.25-1.05H0.65c-1.595,0-2.9,1.305-2.9,2.9v20.3c0,1.595,1.305,2.9,2.9,2.9h11.6"/>
<line fill="none" stroke="#0007AD" stroke-miterlimit="10" x1="9.5" y1="12" x2="22" y2="12"/>
</svg>
