<svg id="Layer_1" enable-background="new 0 0 512.169 512.169" height="512" viewBox="0 0 512.169 512.169" width="512" xmlns="http://www.w3.org/2000/svg"><g><path d="m507.71 357.857-45.469-45.444c-5.859-5.857-15.356-5.855-21.212.005l-28.645 28.654c23.872-125.477-76.617-245.964-204.479-244.67-114.579-.002-207.798 93.217-207.798 207.798-1.486 165.425 190.576 266.344 325.607 171.165l32.255 32.243c5.858 5.856 15.354 5.855 21.211-.002l128.533-128.533c5.812-5.587 5.81-15.63-.003-21.216zm-299.803 124.143c-235.872-9.766-235.811-345.866.001-355.6 130.157-1.561 218.546 141.384 159.202 257.038l-33.016-33.011c5.615-28.891-6.989-59.656-29.216-76.541.215-.207.428-.416.639-.627 29.562-29.342 8.327-80.559-33.343-80.46h-19.579c-14.48-42.588-74.911-42.563-89.375 0h-3.513c-75.551.415-107.486 95.799-48.771 141.714-.214.206-.427.414-.637.625-29.563 29.341-8.331 80.56 33.341 80.461h19.576c14.478 42.588 74.914 42.565 89.378 0h3.513c3.193 0 6.336-.212 9.432-.581.389.503.799.992 1.254 1.447l37.301 37.274c-28.653 18.541-61.581 28.261-96.187 28.261zm48.2-160.667h-96.4c-65.375-2.714-65.325-95.844 0-98.533h16.067c8.284 0 15-6.731 15-15.016.945-22.715 33.333-22.7 34.267.016 0 8.284 6.716 15 15 15h32.133c22.789.957 22.665 33.409 0 34.267h-112.467c-19.902.793-19.887 29.215 0 30h96.4c65.375 2.714 65.325 95.844 0 98.533h-16.066c-8.284 0-15 6.716-15 15-.939 22.727-33.333 22.728-34.267 0 0-8.284-6.716-15-15-15h-32.134c-22.778-.95-22.673-33.406 0-34.267h112.467c19.902-.793 19.887-29.215 0-30zm112.465 154.456-69.958-69.933 24.249-24.235 35.105 35.1c5.869 5.869 15.374 5.841 21.214-.003l72.461-72.483 24.248 24.235z"/><path d="m72.864 89.873c5.86 5.86 15.356 5.857 21.213 0 5.858-5.857 5.858-15.355 0-21.213l-6.526-6.526h120.356c133.894 0 221.161 101.68 238.438 199.912 4.278 19.531 32.24 14.45 29.547-5.197-21.457-121.996-128.443-224.715-267.985-224.715h-120.357l6.527-6.527c5.858-5.858 5.858-15.355 0-21.213-5.857-5.859-15.355-5.857-21.213 0l-32.133 32.134c-5.858 5.857-5.858 15.355 0 21.213z"/></g></svg>