<svg id="Layer_5" enable-background="new 0 0 64 64" height="512" viewBox="0 0 64 64" width="512" xmlns="http://www.w3.org/2000/svg" style="enable-background:new 0 0 512 512; fill: #00af37;"><path d="m63 6c0-2.757-2.243-5-5-5h-44c-2.757 0-5 2.243-5 5v47h-8v5c0 2.757 2.243 5 5 5h44c2.757 0 5-2.243 5-5v-1h4v-4h4zm-49-3h40.026c-.635.838-1.026 1.87-1.026 3v11h-42v-11c0-1.654 1.346-3 3-3zm-8 58c-1.654 0-3-1.346-3-3v-3h42v3c0 1.125.373 2.164 1.002 3zm44 0c-1.654 0-3-1.346-3-3v-5h-36v-34h42v39c0 1.654-1.346 3-3 3zm7-6h-2v-46h2zm4-4h-2v-44h-4v-1c0-1.654 1.346-3 3-3s3 1.346 3 3z"/><path d="m5 57h2v2h-2z"/><path d="m9 57h2v2h-2z"/><path d="m13 57h2v2h-2z"/><path d="m16 25c.552 0 1 .449 1 1h2c0-1.302-.839-2.402-2-2.816v-2.184h-2v2h-2v3c0 1.654 1.346 3 3 3 .552 0 1 .449 1 1v1h-1c-.552 0-1-.449-1-1h-2c0 1.302.839 2.402 2 2.816v2.184h2v-2h2v-3c0-1.654-1.346-3-3-3-.552 0-1-.449-1-1v-1z"/><path d="m45 49h-2v-14h-6v14h-2v-18h-6v18h-2v-10h-6v12h30v-26h-6zm-20 0h-2v-8h2zm14-12h2v12h-2zm-8-4h2v16h-2zm16-6h2v22h-2z"/><path d="m21 21h2v2h-2z"/><path d="m25 21h26v2h-26z"/><path d="m21 25h2v2h-2z"/><path d="m25 25h18v2h-18z"/><path d="m13 49h2v2h-2z"/><path d="m13 45h2v2h-2z"/><path d="m13 41h2v2h-2z"/><path d="m16 15h8c1.654 0 3-1.346 3-3v-4c0-1.654-1.346-3-3-3h-8c-1.654 0-3 1.346-3 3v4c0 1.654 1.346 3 3 3zm-1-7c0-.551.448-1 1-1h8c.552 0 1 .449 1 1v4c0 .551-.448 1-1 1h-8c-.552 0-1-.449-1-1z"/><path d="m29 5h22v2h-22z"/><path d="m33 9h18v2h-18z"/><path d="m29 9h2v2h-2z"/><path d="m49 13h2v2h-2z"/><path d="m29 13h18v2h-18z"/></svg>