<?xml version="1.0" encoding="iso-8859-1"?>
<!-- Generator: Adobe Illustrator 19.0.0, SVG Export Plug-In . SVG Version: 6.00 Build 0)  -->
<svg version="1.1" id="Capa_1" xmlns="http://www.w3.org/2000/svg" xmlns:xlink="http://www.w3.org/1999/xlink" x="0px" y="0px"
	 viewBox="0 0 480 480" style="enable-background:new 0 0 480 480;" xml:space="preserve">
<g>
	<g>
		<rect x="352" y="400" width="128" height="16"/>
	</g>
</g>
<g>
	<g>
		<rect x="352" y="368" width="128" height="16"/>
	</g>
</g>
<g>
	<g>
		<rect y="32" width="128" height="16"/>
	</g>
</g>
<g>
	<g>
		<rect width="128" height="16"/>
	</g>
</g>
<g>
	<g>
		<rect x="352" y="432" width="128" height="16"/>
	</g>
</g>
<g>
	<g>
		<rect x="352" y="464" width="128" height="16"/>
	</g>
</g>
<g>
	<g>
		<path d="M437.536,242.224L416.048,221.6c-37.248-35.834-84.553-59.437-135.584-67.648l4.344-10.272
			c1.058,0.162,2.123,0.269,3.192,0.32c9.644-0.041,18.756-4.429,24.8-11.944l31.808,14.456c-0.366,1.808-0.57,3.644-0.608,5.488
			c0,17.673,14.327,32,32,32c17.673,0,32-14.327,32-32c0.007-7.862-2.924-15.442-8.216-21.256L478.656,12.44l-13.312-8.88
			l-78.888,118.336c-3.351-1.225-6.888-1.867-10.456-1.896c-9.644,0.041-18.756,4.429-24.8,11.944l-31.808-14.456
			c0.366-1.807,0.57-3.644,0.608-5.488c0.11-17.673-14.127-32.089-31.799-32.199c-17.673-0.11-32.089,14.127-32.199,31.799
			c-0.066,10.577,5.099,20.504,13.799,26.52l-5.8,13.696c-73.671-7.022-146.736,18.465-200.056,69.784l-21.48,20.624
			c-3.19,3.057-3.298,8.121-0.241,11.311c0,0,0.001,0.001,0.001,0.001l14.224,14.816c34.498,36.164,78.968,61.256,127.76,72.088
			l-5.008,11.816c-9.073-1.041-18.143,1.964-24.8,8.216c-1.852,1.725-3.493,3.664-4.888,5.776l-45.832-19.64
			c0.08-0.872,0.28-1.728,0.28-2.608c0.07-17.673-14.2-32.057-31.873-32.127c-17.673-0.07-32.057,14.2-32.127,31.873
			c-0.042,10.531,5.101,20.408,13.751,26.414l-52.8,98.048l14.096,7.584l53.848-100C69.9,375.917,70.949,375.987,72,376
			c10.651,0,20.589-5.354,26.448-14.248l45.832,19.64C144.2,382.264,144,383.12,144,384c-0.11,17.673,14.127,32.089,31.799,32.199
			s32.089-14.127,32.199-31.799c0.066-10.577-5.099-20.504-13.799-26.52l6.08-14.4c13.141,2.052,26.42,3.09,39.72,3.104v0
			c69.336,0.258,135.72-28.036,183.552-78.232l14.224-14.816C440.833,250.346,440.726,245.282,437.536,242.224
			C437.537,242.225,437.536,242.224,437.536,242.224z M390.648,127.104h0.008l-2.528,4.288L390.648,127.104z M361.48,145.408
			c3.697-8.026,13.201-11.535,21.227-7.837c0.461,0.212,0.911,0.446,1.349,0.701v0.032c4.903,2.82,7.931,8.04,7.944,13.696
			c0,8.837-7.163,16-16,16s-16-7.163-16-16C360.009,149.721,360.514,147.472,361.48,145.408z M87.522,347.773
			c-0.761,3.071-2.415,5.848-4.754,7.979l-0.008-0.008c-2.928,2.715-6.767,4.234-10.76,4.256c-1.303-0.019-2.599-0.202-3.856-0.544
			c-8.577-2.125-13.808-10.801-11.683-19.378s10.801-13.808,19.378-11.683C84.416,330.52,89.647,339.196,87.522,347.773z
			 M272.909,106.674C275.153,100.266,281.21,95.982,288,96c8.837,0,16,7.163,16,16c-0.009,2.279-0.514,4.528-1.48,6.592
			c-2.581,5.708-8.256,9.385-14.52,9.408c-1.816-0.026-3.613-0.368-5.312-1.008C274.377,124.082,269.999,114.985,272.909,106.674z
			 M240,168c39.746,0.044,71.956,32.254,72,72c0,39.765-32.235,72-72,72c-39.764,0-72-32.235-72-72C168,200.236,200.236,168,240,168
			z M191.091,389.326C188.847,395.734,182.79,400.018,176,400c-8.837,0-16-7.163-16-16c0-4.481,1.906-8.751,5.24-11.744
			c2.928-2.715,6.767-4.234,10.76-4.256c1.816,0.027,3.613,0.368,5.312,1.008C189.623,371.918,194.001,381.015,191.091,389.326z
			 M412,257.272c-91.202,94.993-242.142,98.066-337.135,6.865c-2.335-2.241-4.623-4.53-6.865-6.865l-8.688-9.04l15.704-15.056
			c29.921-28.765,66.843-49.207,107.104-59.296c-36.609,31.966-40.373,87.557-8.407,124.167
			c31.966,36.609,87.558,40.373,124.167,8.406c36.609-31.966,40.373-87.557,8.407-124.167c-2.609-2.988-5.418-5.797-8.407-8.407
			c40.257,10.093,77.176,30.534,107.096,59.296l15.712,15.056L412,257.272z"/>
	</g>
</g>
<g>
	<g>
		<path d="M240,192c-26.51,0-48,21.49-48,48c0.026,26.499,21.501,47.974,48,48c26.51,0,48-21.49,48-48
			C288,213.49,266.51,192,240,192z M240,272c-17.673,0-32-14.327-32-32s14.327-32,32-32c17.673,0,32,14.327,32,32
			S257.673,272,240,272z"/>
	</g>
</g>
<g>
</g>
<g>
</g>
<g>
</g>
<g>
</g>
<g>
</g>
<g>
</g>
<g>
</g>
<g>
</g>
<g>
</g>
<g>
</g>
<g>
</g>
<g>
</g>
<g>
</g>
<g>
</g>
<g>
</g>
</svg>
