<?xml version="1.0" encoding="UTF-8"?>
<svg xmlns="http://www.w3.org/2000/svg" id="Outline" viewBox="0 0 512 512" width="512" height="512" style="enable-background:new 0 0 512 512; fill: #00af37;"><path d="M360,208a8,8,0,0,0,8,8,8,8,0,0,0,16,0v-2.165A15.986,15.986,0,0,0,376,184h8a8,8,0,0,0,0-16,8,8,0,0,0-16,0v2.165A15.986,15.986,0,0,0,376,200h-8A8,8,0,0,0,360,208Z"/><path d="M432,320a63.921,63.921,0,0,0-16,2.025V320h8a8,8,0,0,0,8-8V280a8,8,0,0,0-8-8h-8V248a7.958,7.958,0,0,0-1.623-4.817A63.967,63.967,0,1,0,314.025,208H280V128h24a8,8,0,0,0,5.657-13.657l-64-64a8,8,0,0,0-11.314,0l-64,64A8,8,0,0,0,176,128h24V240H184a8,8,0,0,0-8,8v32a8,8,0,0,0,8,8h8v16h-8a8,8,0,0,0-8,8v8a63.586,63.586,0,0,0-32,8.61V320h8a8,8,0,0,0,8-8V280a8,8,0,0,0-8-8H40a8,8,0,0,0-8,8v24H24a8,8,0,0,0-8,8v32a8,8,0,0,0,8,8h8v16H24a8,8,0,0,0-8,8v32a8,8,0,0,0,8,8h8v24a8,8,0,0,0,8,8H432a64,64,0,0,0,0-128Zm-16-32v16H320V288ZM304,336V320h96v8.61A64.254,64.254,0,0,0,389.736,336Zm72.61,16a63.614,63.614,0,0,0-6.585,16H320V352ZM237.975,368a63.614,63.614,0,0,0-6.585-16H304v16ZM288,384v16H237.975A63.921,63.921,0,0,0,240,384Zm-80-80V288h96v16Zm96-32V256h96v16H304Zm72-128a48,48,0,1,1-48,48A48.054,48.054,0,0,1,376,144Zm-55.39,80a64.437,64.437,0,0,0,13.126,16H248V224Zm-125.3-112L240,67.313,284.686,112H272a8,8,0,0,0-8,8v88H240a8,8,0,0,0-8,8v24H216V120a8,8,0,0,0-8-8ZM192,256h96v16H192Zm0,64h96v16H218.264A63.9,63.9,0,0,0,192,322.025ZM48,288h96v16H48ZM32,320h96v16H32Zm88.61,32a63.614,63.614,0,0,0-6.585,16H48V352ZM32,400V384h80a63.921,63.921,0,0,0,2.025,16Zm16,32V416h72.61a64.437,64.437,0,0,0,13.126,16Zm128,0a48,48,0,1,1,48-48A48.054,48.054,0,0,1,176,432Zm128,0H218.264a64.437,64.437,0,0,0,13.126-16H304Zm0-32V384h64a63.921,63.921,0,0,0,2.025,16Zm16,32V416h56.61a64.437,64.437,0,0,0,13.126,16Zm112,0a48,48,0,1,1,48-48A48.054,48.054,0,0,1,432,432Z"/><path d="M448,368a8,8,0,0,0-8-8,8,8,0,0,0-16,0v2.165A15.986,15.986,0,0,0,432,392h-8a8,8,0,0,0,0,16,8,8,0,0,0,16,0v-2.165A15.986,15.986,0,0,0,432,376h8A8,8,0,0,0,448,368Z"/><path d="M192,368a8,8,0,0,0-8-8,8,8,0,0,0-16,0v2.165A15.986,15.986,0,0,0,176,392h-8a8,8,0,0,0,0,16,8,8,0,0,0,16,0v-2.165A15.986,15.986,0,0,0,176,376h8A8,8,0,0,0,192,368Z"/></svg>
