<svg id="Capa_1" enable-background="new 0 0 512 512" height="512" viewBox="0 0 512 512" width="512" xmlns="http://www.w3.org/2000/svg" style="enable-background:new 0 0 512 512; fill: #00af37;"><g><path d="m183.115 447.511c4.142 0 7.5-3.358 7.5-7.5v-8.205c16.255-3.282 25.751-16.73 27.863-29.292 2.729-16.231-5.76-30.342-21.626-35.951-9.775-3.455-20.612-7.65-26.877-12.564-2.816-2.209-4.011-6.529-3.117-11.273.846-4.49 3.913-9.939 9.98-11.767 2.27-.684 4.397-1.037 6.37-1.154.132-.002.262-.011.392-.02 8.63-.379 14.202 3.787 15.427 4.806 3.184 2.649 7.913 2.215 10.562-.969s2.215-7.913-.969-10.562c-1.675-1.393-8.16-6.3-18.005-7.836v-6.787c0-4.142-3.358-7.5-7.5-7.5s-7.5 3.358-7.5 7.5v7.352c-1.018.229-2.05.491-3.104.809-10.459 3.15-18.273 12.098-20.394 23.351-1.936 10.269 1.36 20.176 8.6 25.854 6.426 5.04 15.447 9.358 31.136 14.904 13.208 4.669 12.396 15.969 11.833 19.321-1.408 8.374-8.443 17.421-20.563 17.53-.003 0-.005 0-.007 0-.023 0-.046.003-.069.003-10.745.076-14.406-.517-22.874-6.058-3.467-2.268-8.115-1.296-10.382 2.17-2.268 3.466-1.296 8.115 2.17 10.382 9.227 6.036 15.553 7.874 23.655 8.356v7.6c-.001 4.142 3.356 7.5 7.499 7.5z"/><path d="m240.42 227.319c.135-1.036.212-2.091.212-3.164 0-3.406-.703-6.65-1.971-9.597 13.502-1.796 23.953-13.386 23.953-27.371 0-5.695-1.733-10.994-4.7-15.395 9.19-4.488 15.536-13.931 15.536-24.829s-6.345-20.341-15.536-24.829c2.967-4.401 4.7-9.699 4.7-15.395 0-12.535-8.399-23.139-19.863-26.497 8.165-11.87 12.687-26.064 12.687-40.657.002-21.826-17.757-39.585-39.585-39.585-13.187 0-24.889 6.481-32.087 16.426-7.198-9.945-18.901-16.426-32.088-16.426-21.828 0-39.587 17.759-39.587 39.587 0 14.139 4.25 27.902 11.941 39.542h-22.668c-.007 0-.013.001-.019.001h-32.518c-4.142 0-7.5 3.358-7.5 7.5s3.358 7.5 7.5 7.5h25.037v139.38h-78.317v-139.38h23.28c4.142 0 7.5-3.358 7.5-7.5s-3.358-7.5-7.5-7.5h-30.78c-4.142 0-7.5 3.358-7.5 7.5v154.38c0 4.142 3.358 7.5 7.5 7.5h80.878c-39.252 29.477-62.778 75.707-62.778 125.93v65.2c0 39.899 32.456 72.36 72.35 72.36h170.54c33.756 0 62.719-22.923 70.431-55.744.947-4.033-1.553-8.069-5.585-9.017-4.032-.949-8.069 1.553-9.017 5.585-6.112 26.01-29.069 44.176-55.829 44.176h-170.54c-31.623 0-57.35-25.731-57.35-57.36v-65.2c0-52.996 28.954-101.074 75.667-125.929h99.462c6.939 0 13.205-2.922 17.646-7.594 55.473 20.82 92.465 73.946 92.465 133.523v50.2c0 4.142 3.358 7.5 7.5 7.5s7.5-3.358 7.5-7.5v-50.2c0-65.405-40.334-123.793-100.967-147.121zm-113.328-187.732c0-13.557 11.03-24.587 24.587-24.587 13.558 0 24.587 11.03 24.587 24.587 0 4.142 3.358 7.5 7.5 7.5s7.5-3.358 7.5-7.5c0-13.557 11.03-24.587 24.587-24.587s24.587 11.03 24.587 24.587c0 14.756-5.83 29.008-16.085 39.542h-81.179c-10.254-10.535-16.084-24.786-16.084-39.542zm89.185 193.924h-107.41v-139.382h126.135c6.955 0 12.612 5.658 12.612 12.612s-5.658 12.612-12.612 12.612c-4.142 0-7.5 3.358-7.5 7.5s3.358 7.5 7.5 7.5h10.836c6.954 0 12.612 5.658 12.612 12.612s-5.658 12.612-12.612 12.612h-10.836c-4.142 0-7.5 3.358-7.5 7.5s3.358 7.5 7.5 7.5c6.955 0 12.612 5.658 12.612 12.612 0 6.955-5.658 12.612-12.612 12.612h-18.726c-4.142 0-7.5 3.358-7.5 7.5s3.358 7.5 7.5 7.5c5.159 0 9.356 4.197 9.356 9.355s-4.197 9.355-9.355 9.355z"/><path d="m503.953 201.491h-27.281l6.443-26.784c.023-.098.045-.197.065-.296 2.333-11.769.007-23.79-6.546-33.848l-43.112-66.185c-5.466-8.388-14.265-14.136-24.143-15.77-9.877-1.635-20.057.972-27.931 7.151-6.728 5.278-11.35 12.806-13.014 21.199-1.851 9.353.035 18.867 5.31 26.789l38.21 57.4-1.307 3.331-4.509-8.004c-6.551-12.556-19.407-20.35-33.586-20.35-6.004 0-12.008 1.464-17.36 4.234-18.538 9.587-25.824 32.469-16.243 51.01.043.083.087.164.133.245l12.675 22.444c6.336 11.225 8.006 24.613 4.7 37.696-3.219 12.728-1.467 26.079 4.935 37.594 9.358 16.82 26.836 26.408 44.935 26.407 1.001 0 97.627-.093 97.627-.093 4.142 0 7.5-3.358 7.5-7.5v-109.17c-.001-4.142-3.359-7.5-7.501-7.5zm-129.454 90.565c-4.537-8.161-5.781-17.617-3.501-26.627 4.254-16.839 2.06-34.15-6.181-48.748l-12.602-22.315c-5.696-11.174-1.288-24.916 9.868-30.685 3.279-1.696 6.801-2.557 10.468-2.557 8.595 0 16.384 4.738 20.328 12.366.041.08.083.158.127.236l27.874 49.479c2.034 3.608 6.606 4.886 10.216 2.854 3.609-2.033 4.886-6.607 2.854-10.216l-13.804-24.504 7.2-18.354c.895-2.281.619-4.855-.739-6.895l-40.377-60.655c-3.062-4.6-4.156-10.128-3.081-15.562.966-4.874 3.65-9.247 7.559-12.312 4.641-3.642 10.401-5.117 16.223-4.153 5.822.963 10.802 4.217 14.023 9.159l43.112 66.184c4.378 6.72 5.949 14.742 4.428 22.604l-26.393 109.715c-.024.099-.046.199-.065.299-1.065 5.384-3.375 10.548-6.68 14.929-3.462 4.585-7.868 8.205-13.093 10.756-17.382 8.487-38.363 1.898-47.764-14.998zm121.954 18.605h-53.776c1.656-1.66 3.218-3.427 4.652-5.328 4.63-6.139 7.875-13.362 9.39-20.898l16.344-67.945h23.39z"/></g></svg>