<svg id="_x31__x2C_5" enable-background="new 0 0 24 24" height="512" viewBox="0 0 24 24" width="512" xmlns="http://www.w3.org/2000/svg"><path d="m10.87 6c-.22 0-.438-.096-.586-.281-.259-.324-.206-.795.117-1.054l3.399-2.72c.115-.092.107-.202.081-.278s-.087-.167-.231-.167h-9.3c-.144 0-.205.09-.231.167s-.034.186.08.277l3.4 2.721c.323.259.376.73.117 1.054-.26.325-.731.375-1.055.117l-3.399-2.72c-.588-.469-.809-1.232-.56-1.944s.896-1.172 1.648-1.172h9.301c.752 0 1.398.46 1.647 1.171s.028 1.475-.561 1.945l-3.398 2.719c-.139.111-.304.165-.469.165z"/><path d="m14.25 6h-10.5c-.414 0-.75-.336-.75-.75s.336-.75.75-.75h10.5c.414 0 .75.336.75.75s-.336.75-.75.75z"/><path d="m9.38 18.5h-2.13c-.414 0-.75-.336-.75-.75s.336-.75.75-.75h2.13c.342 0 .62-.278.62-.62 0-.352-.278-.63-.62-.63h-.76c-1.169 0-2.12-.951-2.12-2.12 0-1.179.951-2.13 2.12-2.13h2.13c.414 0 .75.336.75.75s-.336.75-.75.75h-2.13c-.342 0-.62.278-.62.62 0 .352.278.63.62.63h.76c1.169 0 2.12.951 2.12 2.12 0 1.179-.951 2.13-2.12 2.13z"/><path d="m9 12.75c-.414 0-.75-.336-.75-.75v-1.25c0-.414.336-.75.75-.75s.75.336.75.75v1.25c0 .414-.336.75-.75.75z"/><path d="m9 20c-.414 0-.75-.336-.75-.75v-1.25c0-.414.336-.75.75-.75s.75.336.75.75v1.25c0 .414-.336.75-.75.75z"/><path d="m15.97 12.38c-.293 0-.571-.173-.691-.46-1.144-2.732-2.885-4.983-4.657-6.022-.357-.209-.478-.669-.269-1.026s.668-.478 1.026-.268c2.044 1.197 4.019 3.716 5.282 6.737.16.382-.02.821-.401.981-.095.039-.194.058-.29.058z"/><path d="m12.25 24h-6.5c-3.972 0-5.75-3.39-5.75-6.75 0-4.668 3.094-10.578 6.62-12.647.357-.21.816-.09 1.026.268.21.357.09.817-.267 1.026-3.076 1.805-5.879 7.216-5.879 11.353 0 2.422 1.113 5.25 4.25 5.25h6.5c.414 0 .75.336.75.75s-.336.75-.75.75z"/><path d="m22.25 24h-5.5c-.965 0-1.75-.785-1.75-1.75v-3.5c0-.965.785-1.75 1.75-1.75h5.5c.965 0 1.75.785 1.75 1.75v3.5c0 .965-.785 1.75-1.75 1.75zm-5.5-5.5c-.138 0-.25.112-.25.25v3.5c0 .138.112.25.25.25h5.5c.138 0 .25-.112.25-.25v-3.5c0-.138-.112-.25-.25-.25z"/><path d="m21.25 18.5h-3.5c-.414 0-.75-.336-.75-.75v-2.25c0-1.378 1.121-2.5 2.5-2.5s2.5 1.122 2.5 2.5v2.25c0 .414-.336.75-.75.75zm-2.75-1.5h2v-1.5c0-.551-.448-1-1-1s-1 .449-1 1z"/></svg>