<svg height="512" viewBox="0 0 512 512" width="512" xmlns="http://www.w3.org/2000/svg" style="enable-background:new 0 0 512 512; fill: #00af37;"><g><path d="m440 296h-16v-24a8 8 0 0 0 -8-8h-64v-228a28.031 28.031 0 0 0 -28-28h-232a28.031 28.031 0 0 0 -28 28v440a28.031 28.031 0 0 0 28 28h340a8 8 0 0 0 8-8v-32a8 8 0 0 0 -8-8h-32v-16h16a8 8 0 0 0 8-8v-32a8 8 0 0 0 -8-8h-8v-16h16a8 8 0 0 0 8-8v-24h8a8 8 0 0 0 8-8v-32a8 8 0 0 0 -8-8zm-32-16v16h-128v-16zm-162.32-256-4.13 16h-67.84l-3.67-16zm34.32 464h-188a12.01 12.01 0 0 1 -12-12v-440a12.01 12.01 0 0 1 12-12h61.63l5.91 25.79a7.992 7.992 0 0 0 7.79 6.21h80.42a8 8 0 0 0 7.75-6l6.7-26h61.8a12.01 12.01 0 0 1 12 12v228h-64a8 8 0 0 0 -8 8v32a8 8 0 0 0 8 8h16v16h-8a8 8 0 0 0 -8 8v24h-16a8 8 0 0 0 -8 8v32a8 8 0 0 0 8 8h8v16h-16a8 8 0 0 0 -8 8v32a8 8 0 0 0 8 8h32zm112-112v16h-128v-16zm-136 80v-16h128v16zm168 16v16h-128v-16zm-16-48h-128v-16h128zm8-64h-128v-16h128zm16-32h-128v-16h128z"/><path d="m104 248h208a8 8 0 0 0 0-16h-200v-152a8 8 0 0 0 -16 0v160a8 8 0 0 0 8 8z"/><path d="m136 216h32a8 8 0 0 0 8-8v-64a8 8 0 0 0 -8-8h-32a8 8 0 0 0 -8 8v64a8 8 0 0 0 8 8zm8-64h16v48h-16z"/><path d="m200 216h32a8 8 0 0 0 8-8v-112a8 8 0 0 0 -8-8h-32a8 8 0 0 0 -8 8v112a8 8 0 0 0 8 8zm8-112h16v96h-16z"/><path d="m264 216h32a8 8 0 0 0 8-8v-32a8 8 0 0 0 -8-8h-32a8 8 0 0 0 -8 8v32a8 8 0 0 0 8 8zm8-32h16v16h-16z"/><path d="m184 264h-80a8 8 0 0 0 0 16h80a8 8 0 0 0 0-16z"/><path d="m184 296h-80a8 8 0 0 0 0 16h80a8 8 0 0 0 0-16z"/><path d="m184 328h-80a8 8 0 0 0 0 16h80a8 8 0 0 0 0-16z"/><path d="m184 376h-80a8 8 0 0 0 0 16h80a8 8 0 0 0 0-16z"/><path d="m184 408h-80a8 8 0 0 0 0 16h80a8 8 0 0 0 0-16z"/><path d="m184 440h-80a8 8 0 0 0 0 16h80a8 8 0 0 0 0-16z"/></g></svg>