<svg id="Capa_1" enable-background="new 0 0 512 512" height="512" viewBox="0 0 512 512" width="512" xmlns="http://www.w3.org/2000/svg"><g><path d="m437.02 74.98c-48.352-48.351-112.64-74.98-181.02-74.98-62.648 0-122.939 22.865-169.767 64.384-3.1 2.748-3.384 7.488-.637 10.588 2.748 3.1 7.488 3.385 10.588.637 44.083-39.085 100.839-60.609 159.816-60.609 132.888 0 241 108.112 241 241s-108.112 241-241 241-241-108.112-241-241c0-58.977 21.524-115.733 60.608-159.815 2.747-3.1 2.463-7.84-.637-10.588-3.101-2.748-7.84-2.463-10.588.637-41.518 46.827-64.383 107.118-64.383 169.766 0 68.38 26.629 132.668 74.98 181.02 48.352 48.351 112.64 74.98 181.02 74.98s132.668-26.629 181.02-74.98c48.351-48.352 74.98-112.64 74.98-181.02s-26.629-132.668-74.98-181.02z"/><path d="m98.498 109.131c-3.125-2.721-7.862-2.394-10.581.731-35.328 40.574-54.784 92.474-54.784 146.139.001 50.405 16.424 97.961 47.494 137.525 2.792 3.557 6.981 5.752 11.492 6.022.315.02.63.028.943.028 4.171 0 8.194-1.655 11.161-4.621l29.256-29.256c2.579 5.777 5.653 11.285 9.173 16.469l-25.607 25.608c-3.188 3.189-4.863 7.602-4.593 12.104.27 4.511 2.465 8.7 6.021 11.492 39.564 31.07 87.12 47.493 137.525 47.494 122.89 0 222.868-99.978 222.868-222.868-.001-50.405-16.424-97.961-47.494-137.525-2.792-3.557-6.981-5.752-11.492-6.021-4.517-.278-8.915 1.404-12.104 4.593l-36.403 36.403c-5.024-2.939-10.734-4.45-16.595-4.342-1.788.034-3.539.223-5.247.542l45.423-45.423c3.188-3.189 4.863-7.602 4.593-12.104-.27-4.511-2.465-8.7-6.022-11.492-39.564-31.07-87.12-47.493-137.525-47.494-53.665 0-105.565 19.456-146.139 54.784-3.124 2.72-3.451 7.457-.731 10.581 2.719 3.123 7.457 3.45 10.581.731 37.844-32.95 86.245-51.097 136.289-51.097 47.013.001 91.364 15.316 128.262 44.291.192.151.298.352.312.593.022.352-.166.539-.228.6l-46.298 46.298v-8.164c0-17.838-14.512-32.35-32.35-32.35-7.025 0-13.53 2.258-18.84 6.077-4.132-13.11-16.403-22.644-30.86-22.644-17.838 0-32.35 14.513-32.35 32.351v5.851c-5.018-3.203-10.969-5.068-17.351-5.068-17.838 0-32.35 14.512-32.35 32.35v55.594c-4.86-3.122-10.592-4.988-16.727-5.105-8.605-.161-16.763 3.123-23.009 9.251-6.332 6.213-9.964 14.834-9.964 23.653v90.557c0 9.606 1.281 18.917 3.668 27.779l-34.302 34.302c-.061.062-.244.24-.6.228-.241-.015-.441-.12-.593-.312-28.975-36.897-44.29-81.249-44.291-128.262 0-50.044 18.146-98.445 51.097-136.289 2.723-3.127 2.396-7.864-.728-10.584zm319.886 18.521c.061-.062.252-.251.6-.228.241.015.441.12.593.312 28.975 36.897 44.29 81.249 44.291 128.262 0 114.619-93.249 207.868-207.868 207.868-47.013-.001-91.364-15.316-128.262-44.291-.192-.151-.298-.352-.312-.593-.021-.352.166-.539.228-.601l24.342-24.343c19.571 21.565 47.809 35.127 79.156 35.127h49.699c58.945 0 106.9-47.955 106.9-106.9v-140.255c0-6.472-1.962-12.833-5.506-18.218zm-279.134 104.058c0-4.817 1.993-9.536 5.469-12.946 3.349-3.284 7.648-5.028 12.22-4.96 9.38.178 17.012 7.959 17.012 17.347v41.879c0 8.061 6.015 14.799 13.992 15.675 29.801 3.27 52.274 28.382 52.274 58.413 0 4.143 3.357 7.5 7.5 7.5s7.5-3.357 7.5-7.5c0-37.696-28.219-69.219-65.639-73.323-.352-.039-.628-.375-.628-.765v-41.88-82.834c0-9.566 7.783-17.35 17.35-17.35s17.351 7.783 17.351 17.35v99.4c0 4.143 3.357 7.5 7.5 7.5s7.5-3.357 7.5-7.5v-132.532c0-9.567 7.783-17.351 17.35-17.351s17.35 7.783 17.35 17.351v132.533c0 4.143 3.357 7.5 7.5 7.5s7.5-3.357 7.5-7.5v-115.967c0-9.566 7.783-17.35 17.351-17.35 9.566 0 17.35 7.783 17.35 17.35v26.266.01 97.974c0 4.143 3.357 7.5 7.5 7.5s7.5-3.357 7.5-7.5v-74.55c0-9.388 7.632-17.169 17.012-17.347 4.537-.08 8.872 1.676 12.22 4.961 3.475 3.41 5.469 8.129 5.469 12.945v140.257c0 50.674-41.227 91.9-91.9 91.9h-49.703c-50.674 0-91.9-41.227-91.9-91.9z"/></g></svg>