<svg id="Capa_1" enable-background="new 0 0 512 512" height="512" viewBox="0 0 512 512" width="512" xmlns="http://www.w3.org/2000/svg"><g><path d="m256 512c-68.38 0-132.668-26.629-181.02-74.98-48.351-48.352-74.98-112.64-74.98-181.02 0-61.93 22.405-121.698 63.088-168.294 2.725-3.121 7.463-3.441 10.582-.717 3.12 2.724 3.441 7.462.717 10.582-38.296 43.863-59.387 100.128-59.387 158.429 0 64.374 25.068 124.894 70.587 170.413s106.039 70.587 170.413 70.587 124.894-25.068 170.413-70.587 70.587-106.039 70.587-170.413-25.068-124.894-70.587-170.413c-45.518-45.519-106.039-70.587-170.413-70.587-59.176 0-116.077 21.653-160.222 60.969-3.095 2.755-7.835 2.481-10.589-.613-2.755-3.093-2.48-7.834.612-10.589 46.895-41.766 107.34-64.767 170.199-64.767 68.38 0 132.668 26.629 181.02 74.98 48.351 48.352 74.98 112.64 74.98 181.02s-26.629 132.668-74.98 181.02c-48.352 48.351-112.64 74.98-181.02 74.98z"/><path d="m256 481.866c-60.331 0-117.051-23.494-159.712-66.155-42.66-42.66-66.154-99.38-66.154-159.711s23.494-117.051 66.154-159.711c42.661-42.661 99.381-66.155 159.712-66.155s117.051 23.494 159.712 66.155c42.66 42.66 66.154 99.38 66.154 159.711s-23.494 117.051-66.154 159.711c-42.661 42.661-99.381 66.155-159.712 66.155zm0-436.732c-116.273 0-210.866 94.594-210.866 210.866s94.593 210.866 210.866 210.866 210.866-94.594 210.866-210.866-94.594-210.866-210.866-210.866z"/><path d="m376.19 305.498h-240.379c-13.712 0-24.867-11.156-24.867-24.868v-49.26c0-13.712 11.155-24.868 24.867-24.868h74.517c4.143 0 7.5 3.358 7.5 7.5s-3.357 7.5-7.5 7.5h-74.517c-5.44 0-9.867 4.427-9.867 9.868v49.261c0 5.441 4.427 9.868 9.867 9.868h240.379c5.44 0 9.867-4.427 9.867-9.868v-49.261c0-5.441-4.427-9.868-9.867-9.868h-135.863c-4.143 0-7.5-3.358-7.5-7.5s3.357-7.5 7.5-7.5h135.863c13.712 0 24.867 11.156 24.867 24.868v49.261c0 13.711-11.156 24.867-24.867 24.867z"/></g></svg>